<svg viewBox="0 0 400 400"
  xmlns="http://www.w3.org/2000/svg">
  <g fillRule="evenodd">
    <path fill="current" d="m255.03 198.29c-0.74198 0.30615-0.8775 0.65812-0.8775 2.2786 0 1.5892-0.13358 1.952-0.78 2.1216-0.59085 0.15503-0.78 0.53235-0.78 1.56s-0.18915 1.405-0.78 1.56c-0.59768 0.156-0.78 0.53235-0.78 1.6058 0 1.1408-0.1443 1.4011-0.78 1.4011-0.50505 0-0.78 0.26033-0.78 0.73808 0 0.40657-0.2535 0.83557-0.56355 0.95452s-0.68055 0.83948-0.8229 1.6019c-0.14333 0.76245-0.43193 1.3855-0.64155 1.3855-0.546 0-2.652 2.0563-2.652 2.5896 0 0.2457-0.26325 0.54795-0.585 0.67178-0.32175 0.12285-0.58695 0.53722-0.5889 0.91845-5e-3 0.75465-1.991 2.8353-3.4222 3.5851-0.49725 0.26033-0.99353 0.97598-1.1212 1.6166-0.15698 0.78098-0.4641 1.1486-0.96135 1.1486-0.47093 0-0.73125 0.2769-0.73125 0.78 0 0.46313-0.26033 0.78-0.6396 0.78-0.351 0-2.2532 1.6672-4.2256 3.705-2.4463 2.5272-3.8659 3.705-4.4674 3.705-0.55185 0-0.95648 0.29055-1.0842 0.78-0.1131 0.43193-0.53235 0.78-0.93893 0.78-0.47385 0-0.73417 0.27593-0.73417 0.78 0 0.51383-0.26033 0.78-0.76148 0.78-0.42022 0-1.325 0.70005-2.0153 1.56-0.84143 1.0472-1.5649 1.56-2.1996 1.56-0.61815 0-1.0169 0.27008-1.1505 0.78-0.1131 0.43193-0.53235 0.78-0.93893 0.78-0.40365 0-1.0852 0.351-1.5142 0.78s-1.129 0.78-1.5571 0.78c-0.42705 0-0.99547 0.351-1.2636 0.78-0.26812 0.429-0.81217 0.78-1.21 0.78-0.39683 0-0.81413 0.351-0.92625 0.78-0.1599 0.61133-0.53235 0.78-1.7189 0.78-1.0296 0-1.5142 0.17258-1.5142 0.53918 0 0.29737-0.351 0.6318-0.78 0.74392-0.429 0.11213-0.78 0.4836-0.78 0.82583 0 0.45337-0.37928 0.62107-1.4011 0.62107-1.0735 0-1.4498 0.18233-1.6058 0.78-0.15503 0.59085-0.53235 0.78-1.56 0.78s-1.405 0.18915-1.56 0.78c-0.15503 0.59085-0.53235 0.78-1.56 0.78s-1.405 0.18915-1.56 0.78c-0.16965 0.64838-0.53235 0.78-2.145 0.78s-1.9754 0.13163-2.145 0.78c-0.1599 0.61133-0.53235 0.78-1.7189 0.78-1.2538 0-1.5142 0.13358-1.5142 0.78 0 0.68738-0.26033 0.78-2.1811 0.78-1.8535 0-2.2123 0.117-2.3858 0.78-0.1716 0.6552-0.53235 0.78-2.2581 0.78s-2.0865 0.1248-2.2581 0.78c-0.17355 0.663-0.53235 0.78-2.3858 0.78-1.6614 0-2.3673 0.18623-2.9611 0.78-0.60645 0.60645-1.2997 0.78-3.12 0.78-1.8203 0-2.5136 0.17355-3.12 0.78-0.64155 0.64155-1.2997 0.78-3.705 0.78-2.34 0-2.925 0.117-2.925 0.585 0 0.50798-1.7121 0.585-13.065 0.585s-13.065-0.077-13.065-0.585c0-0.47092-0.60645-0.585-3.12-0.585-2.8597 0-3.12-0.0653-3.12-0.78 0-0.69127-0.26033-0.78-2.2942-0.78-1.9666 0-2.3244-0.11115-2.4989-0.78-0.1716-0.6552-0.53235-0.78-2.2571-0.78-1.363 0-2.2932-0.21645-2.767-0.64545-0.663-0.6006-0.76244-0.6006-1.4254 0-0.39292 0.3549-0.98865 0.64545-1.324 0.64545-0.68542 0-1.0832 0.78878-1.0832 2.145 0 1.3162 0.39292 2.145 1.0169 2.145 0.31395 0 0.54308 0.39683 0.54308 0.94283 0 1.3465 0.38805 2.1772 1.0169 2.1772 0.37343 0 0.54308 0.48653 0.54308 1.56 0 1.0403 0.26032 1.8203 0.78 2.34 0.429 0.429 0.78 1.133 0.78 1.5639s0.351 1.0842 0.78 1.4518c0.49335 0.42217 0.78 1.1505 0.78 1.9822 0 0.9867 0.195 1.366 0.78 1.519 0.59085 0.15503 0.78 0.53235 0.78 1.56s0.18915 1.405 0.78 1.56c0.59085 0.15503 0.78 0.53235 0.78 1.56s0.18915 1.405 0.78 1.56c0.59085 0.15503 0.78 0.53235 0.78 1.56s0.18915 1.405 0.78 1.56c0.58207 0.1521 0.78 0.53235 0.78 1.4976 0 0.95063 0.2067 1.3582 0.78 1.5405 0.58012 0.18428 0.78 0.58988 0.78 1.5863 0 0.93015 0.17842 1.3387 0.585 1.3387 0.3588 0 0.585 0.36465 0.585 0.94283 0 1.3465 0.38805 2.1772 1.0169 2.1772 0.29835 0 0.54308 0.30908 0.54308 0.6864 0 0.37733 0.351 0.9048 0.78 1.1729 0.47482 0.2964 0.78 0.90967 0.78 1.5678 0 0.63375 0.32272 1.3133 0.78 1.6429 0.42997 0.31005 0.78 1.0091 0.78 1.56 0 0.55088 0.35002 1.25 0.78 1.56 0.429 0.30908 0.78 0.9789 0.78 1.4878 0 0.5967 0.2769 0.99743 0.78 1.129 0.58598 0.15308 0.78 0.53235 0.78 1.5239 0 1.0588 0.15405 1.3192 0.78 1.3192 0.51968 0 0.78 0.26033 0.78 0.78 0 0.51968 0.26033 0.78 0.78 0.78 0.65033 0 0.78 0.26033 0.78 1.56 0 1.2997 0.12968 1.56 0.78 1.56 0.48458 0 0.78 0.26033 0.78 0.6864 0 0.37733 0.351 0.9048 0.78 1.1729 0.429 0.26812 0.78 0.88237 0.78 1.364 0 0.50408 0.5811 1.4108 1.365 2.1294 0.75075 0.68933 1.365 1.4011 1.365 1.5824 0 0.4914 2.1167 2.4248 2.654 2.4248 0.25643 0 0.46605 0.26325 0.46605 0.585 0 0.32468 0.3471 0.585 0.78 0.585 0.51968 0 0.78 0.26033 0.78 0.78 0 0.51968 0.26033 0.78 0.78 0.78 0.51968 0 0.78 0.26033 0.78 0.78 0 0.51968 0.26033 0.78 0.78 0.78 0.4953 0 0.78 0.26033 0.78 0.71175 0 0.85508 1.559 2.4082 2.417 2.4082 0.33637 0 0.70395 0.351 0.81607 0.78 0.156 0.59768 0.53235 0.78 1.6058 0.78 1.1408 0 1.4011 0.1443 1.4011 0.78 0 0.429 0.2574 0.78 0.57135 0.78s0.75953 0.351 0.98865 0.78c0.26715 0.50018 0.81705 0.78 1.5278 0.78 0.78292 0 1.171 0.2301 1.3153 0.78 0.12383 0.47288 0.53235 0.78 1.0364 0.78 0.45825 0 1.21 0.351 1.6702 0.78 0.4875 0.45435 1.3767 0.78 2.1284 0.78 0.84045 0 1.2919 0.18915 1.2919 0.53918 0 0.54015 1.13 1.0052 2.4658 1.016 0.39 3e-3 0.97305 0.26812 1.2948 0.58987 0.33442 0.33443 1.287 0.585 2.2259 0.585 1.1573 0 1.8369 0.22913 2.3078 0.78 0.48847 0.57038 1.1505 0.78 2.4628 0.78 1.2041 0 2.1206 0.25643 2.7866 0.78 0.80047 0.62985 2.1083 0.59373 4.0589 0.78 1.6791 0.16035 3.5462 0.35063 3.5462 0.531 0 0 3.1969 0.42573 7.1692 0.4672 3.2837 0.0343 6.6332-0.13333 7.562-0.2182 2.6005-0.23765 1.1825-0.33269 3.7302-0.72616 2.2836-0.35268 3.3318-0.17571 3.7549-0.77826 0.3627-0.5148 1.1564-0.77805 2.7466-0.90968 1.3153-0.10822 2.5321-0.4524 2.9552-0.8346 0.42997-0.38902 1.3748-0.6513 2.3458-0.6513 1.1183 0 1.6273-0.1677 1.6273-0.5343 0-0.3471 0.64058-0.60645 1.8291-0.74002 1.0247-0.11603 2.029-0.48068 2.2854-0.8307 0.25058-0.34418 0.90578-0.62498 1.4537-0.62498 1.3982 0 2.2318-0.37927 2.2318-1.0169 0-0.3432 0.429-0.54308 1.1671-0.54308 0.74392 0 1.3426-0.28275 1.6536-0.78 0.32175-0.51577 0.90967-0.78 1.7316-0.78 0.90285 0 1.3133-0.2145 1.4927-0.78 0.1365-0.429 0.4992-0.78 0.80633-0.78 0.30712 0 0.90967-0.351 1.3387-0.78s1.131-0.78 1.56-0.78c0.51968 0 0.78-0.26032 0.78-0.78 0-0.49822 0.26033-0.78 0.71955-0.78 0.39585 0 1.0374-0.351 1.4254-0.78s1.0462-0.78 1.4615-0.78c0.42802 0 0.84532-0.33832 0.96037-0.78 0.1131-0.43192 0.53235-0.78 0.93893-0.78 0.47385 0 0.73417-0.27592 0.73417-0.78 0-0.55867 0.26033-0.78 0.9165-0.78 0.6435 0 1.4264-0.63862 2.6286-2.145 1.2032-1.5083 1.9841-2.145 2.6296-2.145 0.58987 0 0.99157-0.27885 1.1222-0.78 0.11213-0.429 0.46313-0.78 0.78-0.78 0.31688 0 0.66788-0.351 0.78-0.78 0.1131-0.43192 0.53235-0.78 0.93893-0.78 0.47385 0 0.73417-0.27592 0.73417-0.78 0-0.51967 0.26033-0.78 0.78-0.78 0.51968 0 0.78-0.26032 0.78-0.78 0-0.51967 0.26033-0.78 0.78-0.78 0.50408 0 0.78-0.26032 0.78-0.73417 0-0.40658 0.34808-0.82583 0.78-0.93893 0.44168-0.11505 0.78-0.53235 0.78-0.96037 0-0.41535 0.351-1.0735 0.78-1.4615s0.78-1.0296 0.78-1.4254 0.2691-0.71955 0.59768-0.71955c0.3276 0 0.7098-0.29347 0.84727-0.65227 0.13748-0.35978 0.57135-0.97403 0.96233-1.365 0.39195-0.39195 0.71272-1.0637 0.71272-1.4927s0.24473-0.78 0.54308-0.78c0.62887 0 1.0169-0.8307 1.0169-2.1772 0-0.57818 0.2262-0.94283 0.585-0.94283 0.42218 0 0.585-0.4329 0.585-1.56 0-1.2997 0.12968-1.56 0.78-1.56 0.64643 0 0.78-0.26032 0.78-1.5142 0-1.1866 0.16868-1.559 0.78-1.7189 0.70883-0.18525 0.78-0.53235 0.78-3.7869s0.0712-3.6016 0.78-3.7869c0.7605-0.1989 0.78-0.53235 0.78-13.54 0-12.797-0.0312-13.37-0.78-14.174-0.67762-0.72735-0.78-1.3757-0.78-4.9452 0-3.6855-0.0799-4.1584-0.78-4.5952-0.62205-0.38805-0.78-0.90968-0.78-2.575 0-1.7589-0.12285-2.1196-0.78-2.2912-0.69127-0.18135-0.78-0.53235-0.78-3.0956 0-2.2113-0.13747-2.9445-0.585-3.1161-0.3939-0.15113-0.585-0.76928-0.585-1.8896 0-2.378-0.4095-4.1018-0.97402-4.1018-0.30128 0-0.56063-0.7683-0.68055-2.0153-0.11798-1.2314-0.4407-2.1967-0.82973-2.4804-0.3861-0.28275-0.6357-1.0228-0.6357-1.8847 0-0.89992-0.28567-1.7053-0.78-2.1996-0.4563-0.4563-0.78195-1.3055-0.78487-2.0475-8e-3 -1.8525-0.40073-3.0225-1.016-3.0225-0.36173 0-0.54113-0.4797-0.54405-1.4625-8e-3 -2.0368-0.38025-3.2175-1.016-3.2175-0.38708 0-0.53918-0.54892-0.53918-1.9471 0-1.5239-0.16965-2.0524-0.78-2.4336-0.60255-0.37635-0.78-0.90968-0.78-2.34 0-1.4303-0.17745-1.9636-0.78-2.34-0.60547-0.3783-0.78-0.90968-0.78-2.38 0-1.5473-0.13845-1.9286-0.75952-2.0914-0.57135-0.14918 0.33137-1.9801-0.8775-1.8154l-0.11798-1.6175-1.95-0.0819c-1.0725-0.0448-2.3449 0.0809-2.8275 0.27983" />
  </g>
</svg>
